# xmcd CD database file
#
# Track frame offsets:
#	150
#	20640
#	45202
#	65529
#	90054
#
# Disc length: 1467 seconds
#
# Revision: 0
# Processed by: cddbd v1.5.2PL0 Copyright (c) Steve Scherf et al.
# Submitted via: CDex 1.70beta3
#
DISCID=2d05b905
DTITLE=中島美嘉 - 花束
DYEAR=2015
DGENRE=SonyMusic
TTITLE0=花束
TTITLE1=愛の歌
TTITLE2=花束 (Instrumental)
TTITLE3=愛の歌 (Instrumental)
TTITLE4=花束 (ドラマversion)
EXTD=YEAR: 2015
EXTT0=
EXTT1=
EXTT2=
EXTT3=
EXTT4=
PLAYORDER=
